<?xml version="1.0" encoding="utf-8"?>
<!-- Generator: Adobe Illustrator 24.1.1, SVG Export Plug-In . SVG Version: 6.00 Build 0)  -->
<svg version="1.1" id="Layer_1" xmlns="http://www.w3.org/2000/svg" xmlns:xlink="http://www.w3.org/1999/xlink" x="0px" y="0px" width="180px" height="80px" viewBox="0 0 180 80" enable-background="new 0 0 180 80" xml:space="preserve">
<g>
  <path class="logo-web" d="M60.7,6.9c-0.1-0.2-0.3-0.5-0.5-0.7l6.6-0.1c3.4,5.9,1.2,10.2,0.5,16.3L60.7,6.9z M75.1,39.8c-0.2-0.7,5.5-33.2,4.6-33.5
    L85.2,6c0.7,1.1,14.8,33.1,15.7,34.1l-6,0.1c-0.2-0.3-10.7-23.5-11-24.1c0.2,0.7-3.8,23.4-3,24L75,40.3
    C75,40.3,74.9,40.2,75.1,39.8z M98.2,12.7L99,6.1l6.3-0.1l-0.2,0.7l-2.3,16.2L98.2,12.7z"/>
  <path class="logo-web" d="M113.7,17c1,13.1,2.7,24.3,18.7,16.9l1.8,4.3C120.6,48.7,99.1,29.6,113.7,17z M132.9,26.6c0.1,1.2,0.1,2.6,0,3.3l-9.5,0.1
    l-0.5-4.3l4.6,0.2c-0.4-3.1-2.6-5.3-5.5-5.8l-0.3-4.6C128.3,16.1,132.1,21.1,132.9,26.6z"/>
  <path class="logo-web" d="M151.7,35.8c11.8-4.2-3.2-25.1-9.1-11.6l2.1,15.6c-9.8-3.1-8-27.4-10.2-34.7l5.5-0.3l2.1,14.4c13.6-16,30.3,18.8,10.1,21.5
    L151.7,35.8z"/>
</g>
<g>
  <path class="logo-xenia" d="M2,33.2c-0.2-0.3-0.8-0.7-1.1-0.8l10-0.2c0.9,0.9,37,44.6,37.9,45.3H39L2,33.2z M9.3,76.9L15,64.5l5.9,7.3l-2.8,5.7
    l-9.5,0.1C8.9,77.5,9,77.4,9.3,76.9z M29,37.8c4-8.5,3.1-5,12.5-5.9C41,31.7,35.1,44.7,34.8,45L29,37.8z"/>
  <path class="logo-xenia" d="M54.3,46.6l2.2,17c1.4,9.7,17.1,10.2,22.7,5.5l2.3,5.6C62.8,88.4,35.3,64,54.3,46.6z M79.9,59.3c0.2,1.6,0.1,3.5-0.1,4.4
    l-12.5,0.2l-0.8-5.6l6.1,0.2c-0.5-4.1-3.5-7-7.4-7.8l-0.4-6.3C73.8,45.4,78.9,52.1,79.9,59.3z"/>
  <path class="logo-xenia" d="M83.9,45.1h7.4l0.8,4.6c5.6-9.2,22.3-6.4,22.6,7.4l2.8,20.4h-7.4c-2-5.6,0.2-26.7-9.5-26.1c-8.2,0.7-8.1,6.8-6.5,13.1h-7.4
    L83.9,45.1z"/>
  <path class="logo-xenia" d="M116.1,6.5c-1-5.5,8.1-6.2,8.5-0.8C125.8,11.3,116.4,11.7,116.1,6.5z M121.6,45.4l7.4-0.5l4.6,32.6h-7.4L121.6,45.4z"/>
  <path class="logo-xenia" d="M138.3,61.5c-3.4-14.6,16.2-22.8,23.9-12.5l-0.5-3.9h7.2c1.5,2.6,1.2,30.5,7.4,26.5c7,6.8-8.1,9.8-10.7,2.3L163,55.7
    c-15-18-26.8,12-7.1,16.6l0.5,6.1C147.3,78,139.5,70.6,138.3,61.5z"/>
</g>
</svg>
