<?xml version="1.0" encoding="utf-8"?>
<!-- Generator: Adobe Illustrator 24.1.1, SVG Export Plug-In . SVG Version: 6.00 Build 0)  -->
<svg version="1.1" id="Layer_1" xmlns="http://www.w3.org/2000/svg" xmlns:xlink="http://www.w3.org/1999/xlink" x="0px" y="0px" width="180px" height="70px" viewBox="0 0 180 70" enable-background="new 0 0 180 70" xml:space="preserve">
<style>
  .logo-xenia {
  fill: #ffe100;
  }
</style>
  <g>
  <path class="logo-web" d="M43.2,3.4c-0.1-0.2-0.3-0.5-0.5-0.6l6-0.1c3.1,5.4,1.1,9.3,0.5,14.8L43.2,3.4z M56.3,33.3c-0.2-0.6,5-30.2,4.2-30.5l5-0.2
    c0.6,1,13.5,30.1,14.3,31l-5.5,0.1c-0.2-0.3-9.7-21.4-10-21.9c0.2,0.6-3.5,21.3-2.7,21.8l-5.4,0.2C56.2,33.8,56.1,33.7,56.3,33.3z M77.3,8.7l0.8-6l5.7-0.1l-0.2,0.6l-2.1,14.7L77.3,8.7z"/>
  <path class="logo-web" d="M91.4,12.6c0.9,11.9,2.5,22.1,17,15.4l1.6,3.9C97.7,41.4,78.2,24.1,91.4,12.6z M108.9,21.3c0.1,1.1,0.1,2.4,0,3l-8.6,0.1 l-0.5-3.9l4.2,0.2c-0.4-2.8-2.4-4.8-5-5.3l-0.3-4.2C104.7,11.8,108.2,16.3,108.9,21.3z"/>
  <path class="logo-web" d="M126,29.7c10.7-3.8-2.9-22.8-8.3-10.6c0,0,1.9,14.2,1.9,14.2c-8.9-2.8-7.3-24.9-9.3-31.6l5-0.3l1.9,13.1 c12.4-14.6,27.6,17.1,9.2,19.6L126,29.7z"/>
</g>
<g>
  <path class="logo-xenia" d="M2,23.8c-0.2-0.3-0.8-0.7-1.1-0.8c0,0,10-0.2,10-0.2c0.9,0.9,37,44.6,37.9,45.3L39,68.1L2,23.8z M9.3,67.5
    L15,55.1l5.9,7.3l-2.8,5.7l-9.5,0.1C8.9,68.1,9,68,9.3,67.5z M29,28.4c4-8.5,3.1-5,12.5-5.9c-0.5-0.2-6.4,12.8-6.7,13.1L29,28.4z"
    />
  <path class="logo-xenia" d="M54.3,37.2l2.2,17c1.4,9.7,17.1,10.2,22.7,5.5l2.3,5.6C62.8,79,35.3,54.6,54.3,37.2z M79.9,49.9
    c0.2,1.6,0.1,3.5-0.1,4.4l-12.5,0.2l-0.8-5.6l6.1,0.2c-0.5-4.1-3.5-7-7.4-7.8L64.8,35C73.8,36,78.9,42.7,79.9,49.9z"/>
  <path class="logo-xenia" d="M83.9,35.7h7.4l0.8,4.6c5.6-9.2,22.3-6.4,22.6,7.4c0,0,2.8,20.4,2.8,20.4h-7.4c-2-5.6,0.2-26.7-9.5-26.1
    c-8.2,0.7-8.1,6.8-6.5,13.1h-7.4L83.9,35.7z"/>
  <path class="logo-xenia" d="M119.4,23.6c-1-5.5,8.1-6.2,8.5-0.8C129.1,28.4,119.7,28.8,119.4,23.6z M121.6,36l7.4-0.5l4.6,32.6h-7.4
    L121.6,36z"/>
  <path class="logo-xenia" d="M138.3,52.1c-3.4-14.6,16.2-22.8,23.9-12.5l-0.5-3.9h7.2c1.5,2.6,1.2,30.5,7.4,26.5c7,6.8-8.1,9.8-10.7,2.3
    c0,0-2.6-18.2-2.6-18.2c-15-18-26.8,12-7.1,16.6l0.5,6.1C147.3,68.6,139.5,61.2,138.3,52.1z"/>
</g>
</svg>
