<svg xmlns="http://www.w3.org/2000/svg" xmlns:xlink="http://www.w3.org/1999/xlink"><symbol id="icon-cross" viewBox="0 0 22.199 22.199">
  <polygon points="22.199,2.804 19.396,0 11.1,8.297 2.804,0 0,2.803 8.297,11.1 0,19.396 2.803,22.199 11.1,13.902 19.396,22.199 22.199,19.396 13.903,11.1 "/>
</symbol><symbol id="icon-linkedin" viewBox="0 0 15.74 15.05"><path d="M15.87,15.52V9.7c0-3.12-1.66-4.57-3.88-4.57A3.36,3.36,0,0,0,8.94,6.81V5.37H5.57c0,1,0,10.15,0,10.15H8.94V9.85A2.29,2.29,0,0,1,9.06,9,1.82,1.82,0,0,1,10.79,7.8c1.22,0,1.71.93,1.71,2.29v5.44ZM2,4A1.76,1.76,0,1,0,2,.47,1.76,1.76,0,1,0,2,4ZM3.7,15.52V5.37H.33V15.52Z" transform="translate(-0.13 -0.47)"/></symbol><symbol id="icon-logo-xeniaweb" viewBox="0 0 180 80">
<g>
  <path class="logo-web" d="M60.7,6.9c-0.1-0.2-0.3-0.5-0.5-0.7l6.6-0.1c3.4,5.9,1.2,10.2,0.5,16.3L60.7,6.9z M75.1,39.8c-0.2-0.7,5.5-33.2,4.6-33.5
    L85.2,6c0.7,1.1,14.8,33.1,15.7,34.1l-6,0.1c-0.2-0.3-10.7-23.5-11-24.1c0.2,0.7-3.8,23.4-3,24L75,40.3
    C75,40.3,74.9,40.2,75.1,39.8z M98.2,12.7L99,6.1l6.3-0.1l-0.2,0.7l-2.3,16.2L98.2,12.7z"/>
  <path class="logo-web" d="M113.7,17c1,13.1,2.7,24.3,18.7,16.9l1.8,4.3C120.6,48.7,99.1,29.6,113.7,17z M132.9,26.6c0.1,1.2,0.1,2.6,0,3.3l-9.5,0.1
    l-0.5-4.3l4.6,0.2c-0.4-3.1-2.6-5.3-5.5-5.8l-0.3-4.6C128.3,16.1,132.1,21.1,132.9,26.6z"/>
  <path class="logo-web" d="M151.7,35.8c11.8-4.2-3.2-25.1-9.1-11.6l2.1,15.6c-9.8-3.1-8-27.4-10.2-34.7l5.5-0.3l2.1,14.4c13.6-16,30.3,18.8,10.1,21.5
    L151.7,35.8z"/>
</g>
<g>
  <path class="logo-xenia" d="M2,33.2c-0.2-0.3-0.8-0.7-1.1-0.8l10-0.2c0.9,0.9,37,44.6,37.9,45.3H39L2,33.2z M9.3,76.9L15,64.5l5.9,7.3l-2.8,5.7
    l-9.5,0.1C8.9,77.5,9,77.4,9.3,76.9z M29,37.8c4-8.5,3.1-5,12.5-5.9C41,31.7,35.1,44.7,34.8,45L29,37.8z"/>
  <path class="logo-xenia" d="M54.3,46.6l2.2,17c1.4,9.7,17.1,10.2,22.7,5.5l2.3,5.6C62.8,88.4,35.3,64,54.3,46.6z M79.9,59.3c0.2,1.6,0.1,3.5-0.1,4.4
    l-12.5,0.2l-0.8-5.6l6.1,0.2c-0.5-4.1-3.5-7-7.4-7.8l-0.4-6.3C73.8,45.4,78.9,52.1,79.9,59.3z"/>
  <path class="logo-xenia" d="M83.9,45.1h7.4l0.8,4.6c5.6-9.2,22.3-6.4,22.6,7.4l2.8,20.4h-7.4c-2-5.6,0.2-26.7-9.5-26.1c-8.2,0.7-8.1,6.8-6.5,13.1h-7.4
    L83.9,45.1z"/>
  <path class="logo-xenia" d="M116.1,6.5c-1-5.5,8.1-6.2,8.5-0.8C125.8,11.3,116.4,11.7,116.1,6.5z M121.6,45.4l7.4-0.5l4.6,32.6h-7.4L121.6,45.4z"/>
  <path class="logo-xenia" d="M138.3,61.5c-3.4-14.6,16.2-22.8,23.9-12.5l-0.5-3.9h7.2c1.5,2.6,1.2,30.5,7.4,26.5c7,6.8-8.1,9.8-10.7,2.3L163,55.7
    c-15-18-26.8,12-7.1,16.6l0.5,6.1C147.3,78,139.5,70.6,138.3,61.5z"/>
</g>
</symbol><symbol id="icon-menu" viewBox="0 0 22.928 21.982">
  <g>
    <rect width="22.928" height="3.964"/>
    <rect y="9.009" width="22.928" height="3.964"/>
    <rect y="18.018" width="22.928" height="3.964"/>
  </g>
</symbol><symbol id="icon-tick" viewBox="0 0 23.049 16.249">
  <path d="M22.801,1.299L21.75,0.248c-0.331-0.331-0.872-0.331-1.203,0L8.693,12.102L2.502,5.911c-0.331-0.331-0.872-0.331-1.203,0 L0.248,6.962c-0.331,0.331-0.331,0.872,0,1.202l7.837,7.837c0.167,0.167,0.388,0.248,0.608,0.246c0.22,0.002,0.44-0.079,0.608-0.246 l13.5-13.5C23.132,2.171,23.132,1.63,22.801,1.299z"/>
</symbol><symbol id="icon-twitter" viewBox="0 0 17.5 14.663">
  <g id="W6EeEF_1_">
    <g>
      <path fill-rule="evenodd" clip-rule="evenodd" d="M11.283,0.153c1.736-0.484,3.074,0.264,3.685,1.15 c0.694-0.225,1.372-0.47,2.072-0.69c-0.004,0.841-0.538,1.478-0.883,1.728C16.861,2.506,17.5,1.86,17.5,1.86 c-0.175,0.977-1.035,1.746-1.611,1.977C15.65,10.429,12.617,14.793,5.507,14.66c-0.538,0,0.077,0-0.46,0 c-0.422,0-4.29-0.45-5.047-1.843c2.341,0.192,4.011-0.412,4.835-1.15c-0.989-0.293-2.761-0.464-3.07-2.881 c0.362,0.105,0.583,0.223,1.228,0.117C1.757,8.067,0.385,7.366,0.461,5.218c0.294,0.319,1.1,0.523,1.381,0.461 c-0.725-0.235-2.03-3.281-0.921-4.836C2.794,2.655,4.769,4.364,8.29,4.528C8.506,2.288,9.461,0.788,11.283,0.153z"/>
    </g>
  </g>
</symbol><symbol id="icon-youtube" viewBox="0 0 19.979 14.015">
  <path d="M17.145,0H2.835C1.275,0,0,1.275,0,2.835v8.345c0,1.56,1.275,2.835,2.835,2.835h14.31c1.56,0,2.835-1.275,2.835-2.835V2.835 C19.979,1.275,18.704,0,17.145,0z M7.036,10.392V3.623l6.769,3.384L7.036,10.392z"/>
</symbol></svg>